<svg xmlns="http://www.w3.org/2000/svg" width="1340" height="248" fill="none"><path fill="#FFCCD3" d="M1296.25 205.877V13.691h43.44v192.186h-43.44Z"/><path fill="#FDF8C1" d="M1222.5 205.877v-7.898c-4.38 3.686-9.39 6.494-15 8.425-5.44 2.106-11.32 3.159-17.64 3.159-8.95 0-17.38-1.667-25.28-5.002-7.89-3.51-14.91-8.425-21.06-14.743-5.96-6.494-10.7-14.129-14.21-22.905-3.34-8.775-5.01-18.516-5.01-29.222 0-10.882 1.67-20.711 5.01-29.486 3.51-8.776 8.25-16.235 14.21-22.378 6.15-6.319 13.17-11.145 21.06-14.48 7.9-3.51 16.24-5.265 25.02-5.265 6.31 0 12.28 1.053 17.9 3.16 5.61 1.93 10.62 4.65 15 8.16v-7.634h43.44v136.109h-43.44Zm-26.85-34.751c8.43 0 15.18-3.072 20.27-9.215s7.64-14.216 7.64-24.22-2.55-17.99-7.64-23.958c-5.09-6.143-11.84-9.214-20.27-9.214-8.6 0-15.44 2.984-20.53 8.951-4.92 5.968-7.38 14.041-7.38 24.221 0 10.179 2.46 18.341 7.38 24.484 5.09 5.967 11.93 8.951 20.53 8.951Z"/><path fill="#FFD6A8" d="M1011.86 248h-43.441V69.768h43.441v7.635c4.39-3.51 9.39-6.231 15-8.162 5.62-2.106 11.59-3.16 17.91-3.16 8.77 0 17.11 1.756 25.01 5.266 7.9 3.335 14.83 8.162 20.8 14.48 6.14 6.318 10.88 13.865 14.21 22.641 3.51 8.776 5.27 18.517 5.27 29.223 0 10.53-1.76 20.184-5.27 28.959-3.33 8.776-8.07 16.411-14.21 22.905-5.97 6.318-12.9 11.232-20.8 14.743-7.9 3.51-16.33 5.265-25.28 5.265-6.31 0-12.28-1.053-17.9-3.159a47.374 47.374 0 0 1-14.74-8.425V248Zm26.85-76.874c8.6 0 15.36-2.984 20.27-8.951 5.09-6.143 7.64-14.305 7.64-24.484 0-10.18-2.55-18.253-7.64-24.221-4.91-5.967-11.67-8.951-20.27-8.951-8.42 0-15.18 3.071-20.27 9.214-5.09 5.968-7.63 13.954-7.63 23.958 0 10.004 2.54 18.077 7.63 24.22 5.09 6.143 11.85 9.215 20.27 9.215Z"/><path fill="#FF9FA0" d="M875.062 210.089c-10.18 0-19.657-1.755-28.433-5.265-8.775-3.686-16.41-8.776-22.904-15.269-6.494-6.67-11.584-14.392-15.27-23.168-3.51-8.776-5.265-18.341-5.265-28.696s1.755-19.921 5.265-28.696c3.686-8.776 8.776-16.41 15.27-22.905 6.494-6.494 14.129-11.496 22.904-15.006 8.776-3.686 18.253-5.529 28.433-5.529 10.355 0 19.833 1.843 28.433 5.529 8.776 3.51 16.41 8.512 22.904 15.006s11.496 14.129 15.007 22.905c3.685 8.775 5.528 18.341 5.528 28.696s-1.843 19.92-5.528 28.696c-3.511 8.776-8.513 16.498-15.007 23.168-6.494 6.493-14.128 11.583-22.904 15.269-8.6 3.51-18.078 5.265-28.433 5.265Zm0-39.227c8.6 0 15.445-3.071 20.535-9.214 5.265-6.318 7.898-14.304 7.898-23.957 0-9.829-2.633-17.727-7.898-23.694-5.09-6.143-11.935-9.215-20.535-9.215s-15.533 3.072-20.798 9.215c-5.09 5.967-7.635 13.865-7.635 23.694 0 9.653 2.545 17.639 7.635 23.957 5.265 6.143 12.198 9.214 20.798 9.214Z"/><path fill="#B7F5CC" d="M654.503 205.877V69.768h43.439V76.613c4.739-3.335 10.005-5.88 15.796-7.635 5.968-1.93 12.374-2.896 19.219-2.896 10.004 0 18.78 2.282 26.327 6.845 7.722 4.563 13.69 11.145 17.902 19.745 4.388 8.425 6.582 18.604 6.582 30.539v82.666h-43.439v-76.874c0-7.021-1.668-12.637-5.003-16.849-3.159-4.388-8.249-6.582-15.269-6.582-7.021 0-12.461 2.018-16.323 6.055-3.861 4.037-5.792 9.829-5.792 17.376v76.874h-43.439Z"/><path fill="#9FF1FA" d="M582.074 205.877v-7.898c-4.388 3.686-9.39 6.494-15.007 8.425-5.44 2.106-11.32 3.159-17.639 3.159-8.951 0-17.375-1.667-25.273-5.002-7.898-3.51-14.919-8.425-21.062-14.743-5.967-6.494-10.706-14.129-14.216-22.905-3.335-8.775-5.002-18.516-5.002-29.222 0-10.882 1.667-20.711 5.002-29.486 3.51-8.776 8.249-16.235 14.216-22.378 6.143-6.319 13.164-11.145 21.062-14.48 7.898-3.51 16.235-5.265 25.01-5.265 6.319 0 12.286 1.053 17.902 3.16 5.617 1.93 10.619 4.65 15.007 8.16v-7.634h43.439v136.109h-43.439Zm-26.854-34.751c8.425 0 15.182-3.072 20.272-9.215 5.09-6.143 7.635-14.216 7.635-24.22s-2.545-17.99-7.635-23.958c-5.09-6.143-11.847-9.214-20.272-9.214-8.6 0-15.445 2.984-20.535 8.951-4.914 5.968-7.371 14.041-7.371 24.221 0 10.179 2.457 18.341 7.371 24.484 5.09 5.967 11.935 8.951 20.535 8.951Z"/><path fill="#D9B0FF" d="M439.341 54.235c-5.09 0-9.741-1.229-13.953-3.686a28.732 28.732 0 0 1-9.741-9.74c-2.457-4.038-3.686-8.513-3.686-13.428 0-4.914 1.229-9.302 3.686-13.163a28.733 28.733 0 0 1 9.741-9.74C429.6 2.02 434.251.79 439.341.79c4.915 0 9.39 1.229 13.427 3.686 4.212 2.457 7.547 5.704 10.004 9.741 2.457 3.861 3.686 8.25 3.686 13.163 0 4.915-1.229 9.39-3.686 13.427-2.457 4.037-5.792 7.284-10.004 9.741-4.037 2.457-8.512 3.686-13.427 3.686ZM417.49 205.877V69.768h43.439v136.109H417.49Z"/><path fill="#8BC2FF" d="M262.748 205.877V26.855h65.291c13.514 0 25.273 2.633 35.277 7.898 10.005 5.09 17.815 12.286 23.431 21.588 5.617 9.302 8.425 20.184 8.425 32.645 0 12.286-2.808 23.08-8.425 32.382-5.441 9.302-12.988 16.498-22.641 21.588-9.477 5.09-20.271 7.635-32.382 7.635H308.82v55.286h-46.072Zm65.291-137.689H308.82V110.574h21.851c5.441 0 9.829-2.018 13.164-6.055 3.51-4.037 5.265-9.039 5.265-15.006 0-6.143-1.843-11.233-5.529-15.27-3.685-4.037-8.863-6.055-15.532-6.055Z"/><rect width="232.878" height="232.878" x="232.878" y="232.878" fill="#1D293D" rx="16" transform="rotate(180 232.878 232.878)"/><path fill="#FDF8C1" d="M200.102 25.875h-33.199v100.099c0 2.557-2.036 4.627-4.534 4.627h-7.117v71.226c0 3.876 3.086 7.024 6.891 7.024h37.959c3.81 0 6.9-3.148 6.9-7.024V32.905c0-3.883-3.09-7.03-6.9-7.03Z"/><path fill="#B7F5CC" d="M129.822 130.601c-2.496 0-4.529-2.07-4.529-4.627V25.875h-23.074v100.099c0 2.557-2.033 4.627-4.544 4.627h-7.111v71.226c0 3.876 3.088 7.024 6.901 7.024h37.945c3.817 0 6.904-3.148 6.904-7.024v-71.226h-12.492Z"/><path fill="#8BC2FF" d="M65.142 130.601c-2.509 0-4.542-2.07-4.542-4.627V25.875H32.773c-3.812 0-6.898 3.147-6.898 7.03v168.922c0 3.876 3.086 7.024 6.898 7.024h37.95c3.814 0 6.903-3.148 6.903-7.024v-71.226H65.142Z"/></svg>