<svg width="1347" height="249" viewBox="0 0 1347 249" fill="none" xmlns="http://www.w3.org/2000/svg">
<path d="M1303.25 206.877C1303.25 175.109 1303.25 143.079 1303.25 110.784C1303.25 78.4901 1303.25 46.4592 1303.25 14.6915C1310.45 14.6915 1317.73 14.6915 1325.1 14.6915C1332.47 14.6915 1339.67 14.6915 1346.69 14.6915C1346.69 46.4592 1346.69 78.4901 1346.69 110.784C1346.69 143.079 1346.69 175.109 1346.69 206.877C1339.67 206.877 1332.47 206.877 1325.1 206.877C1317.73 206.877 1310.45 206.877 1303.25 206.877Z" fill="#1D293D"/>
<path d="M1229.5 206.877C1229.5 205.473 1229.5 204.157 1229.5 202.928C1229.5 201.524 1229.5 200.208 1229.5 198.979C1225.12 202.665 1220.11 205.473 1214.5 207.404C1209.06 209.51 1203.18 210.563 1196.86 210.563C1187.91 210.563 1179.48 208.895 1171.58 205.561C1163.69 202.05 1156.67 197.136 1150.52 190.818C1144.56 184.324 1139.82 176.689 1136.31 167.913C1132.97 159.138 1131.3 149.397 1131.3 138.691C1131.3 127.809 1132.97 117.98 1136.31 109.205C1139.82 100.429 1144.56 92.9698 1150.52 86.8269C1156.67 80.5084 1163.69 75.6819 1171.58 72.3471C1179.48 68.8369 1187.82 67.0818 1196.6 67.0818C1202.91 67.0818 1208.88 68.1349 1214.5 70.241C1220.11 72.1716 1225.12 74.8921 1229.5 78.4023C1229.5 76.9982 1229.5 75.6819 1229.5 74.4533C1229.5 73.2247 1229.5 71.9961 1229.5 70.7675C1236.7 70.7675 1243.98 70.7675 1251.36 70.7675C1258.73 70.7675 1265.92 70.7675 1272.94 70.7675C1272.94 93.2331 1272.94 115.962 1272.94 138.954C1272.94 161.771 1272.94 184.412 1272.94 206.877C1265.92 206.877 1258.73 206.877 1251.36 206.877C1243.98 206.877 1236.7 206.877 1229.5 206.877ZM1202.65 172.126C1211.08 172.126 1217.83 169.054 1222.92 162.911C1228.01 156.768 1230.56 148.695 1230.56 138.691C1230.56 128.686 1228.01 120.701 1222.92 114.733C1217.83 108.59 1211.08 105.519 1202.65 105.519C1194.05 105.519 1187.21 108.503 1182.12 114.47C1177.2 120.437 1174.74 128.511 1174.74 138.691C1174.74 148.87 1177.2 157.032 1182.12 163.175C1187.21 169.142 1194.05 172.126 1202.65 172.126Z" fill="#1D293D"/>
<path d="M1018.86 249C1011.84 249 1004.64 249 997.271 249C989.899 249 982.615 249 975.419 249C975.419 219.689 975.419 190.028 975.419 160.015C975.419 129.827 975.419 100.078 975.419 70.7675C982.615 70.7675 989.899 70.7675 997.271 70.7675C1004.64 70.7675 1011.84 70.7675 1018.86 70.7675C1018.86 71.9961 1018.86 73.2247 1018.86 74.4533C1018.86 75.6819 1018.86 76.9982 1018.86 78.4023C1023.25 74.8921 1028.25 72.1716 1033.86 70.241C1039.48 68.1349 1045.45 67.0818 1051.77 67.0818C1060.54 67.0818 1068.88 68.8369 1076.78 72.3471C1084.68 75.6819 1091.61 80.5084 1097.58 86.8269C1103.72 93.1453 1108.46 100.692 1111.79 109.468C1115.3 118.244 1117.06 127.984 1117.06 138.691C1117.06 149.221 1115.3 158.875 1111.79 167.65C1108.46 176.426 1103.72 184.061 1097.58 190.554C1091.61 196.873 1084.68 201.787 1076.78 205.297C1068.88 208.808 1060.45 210.563 1051.5 210.563C1045.19 210.563 1039.22 209.51 1033.6 207.404C1028.16 205.473 1023.25 202.665 1018.86 198.979C1018.86 207.228 1018.86 215.565 1018.86 223.989C1018.86 232.414 1018.86 240.751 1018.86 249ZM1045.71 172.126C1054.31 172.126 1061.07 169.142 1065.98 163.175C1071.07 157.032 1073.62 148.87 1073.62 138.691C1073.62 128.511 1071.07 120.437 1065.98 114.47C1061.07 108.503 1054.31 105.519 1045.71 105.519C1037.29 105.519 1030.53 108.59 1025.44 114.733C1020.35 120.701 1017.81 128.686 1017.81 138.691C1017.81 148.695 1020.35 156.768 1025.44 162.911C1030.53 169.054 1037.29 172.126 1045.71 172.126Z" fill="#1D293D"/>
<path d="M882.062 211.089C871.882 211.089 862.405 209.334 853.629 205.824C844.854 202.138 837.219 197.048 830.725 190.555C824.231 183.885 819.141 176.163 815.455 167.387C811.945 158.611 810.19 149.046 810.19 138.691C810.19 128.336 811.945 118.77 815.455 109.995C819.141 101.219 824.231 93.5841 830.725 87.0902C837.219 80.5963 844.854 75.5942 853.629 72.0839C862.405 68.3982 871.882 66.5553 882.062 66.5553C892.417 66.5553 901.895 68.3982 910.495 72.0839C919.271 75.5942 926.905 80.5963 933.399 87.0902C939.893 93.5841 944.895 101.219 948.406 109.995C952.091 118.77 953.934 128.336 953.934 138.691C953.934 149.046 952.091 158.611 948.406 167.387C944.895 176.163 939.893 183.885 933.399 190.555C926.905 197.048 919.271 202.138 910.495 205.824C901.895 209.334 892.417 211.089 882.062 211.089ZM882.062 171.862C890.662 171.862 897.507 168.791 902.597 162.648C907.862 156.33 910.495 148.344 910.495 138.691C910.495 128.862 907.862 120.964 902.597 114.997C897.507 108.854 890.662 105.782 882.062 105.782C873.462 105.782 866.529 108.854 861.264 114.997C856.174 120.964 853.629 128.862 853.629 138.691C853.629 148.344 856.174 156.33 861.264 162.648C866.529 168.791 873.462 171.862 882.062 171.862Z" fill="#1D293D"/>
<path d="M661.503 206.877C661.503 184.412 661.503 161.771 661.503 138.954C661.503 115.962 661.503 93.2331 661.503 70.7675C668.699 70.7675 675.983 70.7675 683.354 70.7675C690.726 70.7675 697.922 70.7675 704.942 70.7675C704.942 71.9961 704.942 73.1369 704.942 74.19C704.942 75.2431 704.942 76.3839 704.942 77.6125C709.681 74.2778 714.947 71.7328 720.738 69.9777C726.706 68.0471 733.112 67.0818 739.957 67.0818C749.961 67.0818 758.737 69.3634 766.284 73.9268C774.006 78.4901 779.974 85.0718 784.186 93.6719C788.574 102.096 790.768 112.276 790.768 124.211C790.768 137.901 790.768 151.679 790.768 165.544C790.768 179.409 790.768 193.187 790.768 206.877C783.747 206.877 776.551 206.877 769.18 206.877C761.808 206.877 754.524 206.877 747.329 206.877C747.329 194.24 747.329 181.428 747.329 168.44C747.329 155.452 747.329 142.64 747.329 130.003C747.329 122.982 745.661 117.366 742.326 113.154C739.167 108.766 734.077 106.572 727.057 106.572C720.036 106.572 714.596 108.59 710.734 112.627C706.873 116.664 704.942 122.456 704.942 130.003C704.942 142.64 704.942 155.452 704.942 168.44C704.942 181.428 704.942 194.24 704.942 206.877C697.922 206.877 690.726 206.877 683.354 206.877C675.983 206.877 668.699 206.877 661.503 206.877Z" fill="#1D293D"/>
<path d="M589.074 206.877C589.074 205.473 589.074 204.157 589.074 202.928C589.074 201.524 589.074 200.208 589.074 198.979C584.686 202.665 579.684 205.473 574.067 207.404C568.627 209.51 562.747 210.563 556.428 210.563C547.477 210.563 539.053 208.895 531.155 205.561C523.257 202.05 516.236 197.136 510.093 190.818C504.126 184.324 499.387 176.689 495.877 167.913C492.542 159.138 490.875 149.397 490.875 138.691C490.875 127.809 492.542 117.98 495.877 109.205C499.387 100.429 504.126 92.9698 510.093 86.8269C516.236 80.5084 523.257 75.6819 531.155 72.3471C539.053 68.8369 547.39 67.0818 556.165 67.0818C562.484 67.0818 568.451 68.1349 574.067 70.241C579.684 72.1716 584.686 74.8921 589.074 78.4023C589.074 76.9982 589.074 75.6819 589.074 74.4533C589.074 73.2247 589.074 71.9961 589.074 70.7675C596.27 70.7675 603.553 70.7675 610.925 70.7675C618.296 70.7675 625.492 70.7675 632.513 70.7675C632.513 93.2331 632.513 115.962 632.513 138.954C632.513 161.771 632.513 184.412 632.513 206.877C625.492 206.877 618.296 206.877 610.925 206.877C603.553 206.877 596.27 206.877 589.074 206.877ZM562.22 172.126C570.645 172.126 577.402 169.054 582.492 162.911C587.582 156.768 590.127 148.695 590.127 138.691C590.127 128.686 587.582 120.701 582.492 114.733C577.402 108.59 570.645 105.519 562.22 105.519C553.62 105.519 546.775 108.503 541.685 114.47C536.771 120.437 534.314 128.511 534.314 138.691C534.314 148.87 536.771 157.032 541.685 163.175C546.775 169.142 553.62 172.126 562.22 172.126Z" fill="#1D293D"/>
<path d="M446.341 55.2348C441.252 55.2348 436.6 54.0062 432.388 51.549C428.351 49.0919 425.104 45.8449 422.647 41.8081C420.19 37.7713 418.961 33.2958 418.961 28.3814C418.961 23.4671 420.19 19.0793 422.647 15.218C425.104 11.1813 428.351 7.9343 432.388 5.47713C436.6 3.01996 441.252 1.79138 446.341 1.79138C451.256 1.79138 455.731 3.01996 459.768 5.47713C463.98 7.9343 467.315 11.1813 469.772 15.218C472.229 19.0793 473.458 23.4671 473.458 28.3814C473.458 33.2958 472.229 37.7713 469.772 41.8081C467.315 45.8449 463.98 49.0919 459.768 51.549C455.731 54.0062 451.256 55.2348 446.341 55.2348ZM424.49 206.877C424.49 184.412 424.49 161.771 424.49 138.954C424.49 115.962 424.49 93.2331 424.49 70.7676C431.686 70.7676 438.97 70.7676 446.341 70.7676C453.713 70.7676 460.909 70.7676 467.929 70.7676C467.929 93.2331 467.929 115.962 467.929 138.954C467.929 161.771 467.929 184.412 467.929 206.877C460.909 206.877 453.713 206.877 446.341 206.877C438.97 206.877 431.686 206.877 424.49 206.877Z" fill="#1D293D"/>
<path d="M269.748 206.877C269.748 177.391 269.748 147.554 269.748 117.366C269.748 87.1779 269.748 57.3409 269.748 27.8549C280.63 27.8549 291.512 27.8549 302.393 27.8549C313.451 27.8549 324.332 27.8549 335.039 27.8549C348.553 27.8549 360.312 30.4875 370.317 35.7529C380.321 40.8427 388.131 48.0387 393.747 57.3409C399.364 66.643 402.172 77.5247 402.172 89.9861C402.172 102.272 399.364 113.066 393.747 122.368C388.307 131.67 380.76 138.866 371.106 143.956C361.629 149.046 350.835 151.591 338.724 151.591C334.863 151.591 331.002 151.591 327.141 151.591C323.455 151.591 319.681 151.591 315.82 151.591C315.82 160.717 315.82 169.932 315.82 179.234C315.82 188.536 315.82 197.75 315.82 206.877C308.273 206.877 300.638 206.877 292.916 206.877C285.193 206.877 277.471 206.877 269.748 206.877ZM335.039 69.1879C331.879 69.1879 328.632 69.1879 325.298 69.1879C322.139 69.1879 318.979 69.1879 315.82 69.1879C315.82 76.2084 315.82 83.3166 315.82 90.5126C315.82 97.5331 315.82 104.554 315.82 111.574C319.33 111.574 322.928 111.574 326.614 111.574C330.475 111.574 334.161 111.574 337.671 111.574C343.112 111.574 347.5 109.556 350.835 105.519C354.345 101.482 356.1 96.48 356.1 90.5126C356.1 84.3697 354.257 79.2799 350.571 75.2431C346.886 71.2063 341.708 69.1879 335.039 69.1879Z" fill="#1D293D"/>
<rect x="232.878" y="232.878" width="232.878" height="232.878" rx="16" transform="rotate(180 232.878 232.878)" fill="#1D293D"/>
<path d="M200.102 25.8753L166.903 25.8753L166.903 125.974C166.903 128.531 164.867 130.601 162.369 130.601L155.252 130.601L155.252 201.827C155.252 205.703 158.338 208.851 162.143 208.851L200.102 208.851C203.912 208.851 207.002 205.703 207.002 201.827L207.002 32.9048C207.002 29.0217 203.912 25.8753 200.102 25.8753Z" fill="white"/>
<path d="M129.822 130.601C127.326 130.601 125.293 128.531 125.293 125.974L125.293 25.8753L102.219 25.8753L102.219 125.974C102.219 128.531 100.186 130.601 97.6751 130.601L90.5636 130.601L90.5636 201.827C90.5636 205.703 93.6516 208.851 97.4653 208.851L135.41 208.851C139.227 208.851 142.314 205.703 142.314 201.827L142.314 130.601L129.822 130.601Z" fill="white"/>
<path d="M65.1419 130.601C62.6333 130.601 60.5999 128.531 60.5999 125.974L60.5999 25.8753L32.7728 25.8753C28.9612 25.8753 25.8753 29.0217 25.8753 32.9048L25.8754 201.827C25.8754 205.703 28.9612 208.851 32.7729 208.851L70.7228 208.851C74.5367 208.851 77.6259 205.703 77.6259 201.827L77.6259 130.601L65.1419 130.601Z" fill="white"/>
</svg>
