<svg xmlns="http://www.w3.org/2000/svg" version="1.1" xmlns:xlink="http://www.w3.org/1999/xlink" width="1000" height="1000"><g clip-path="url(#SvgjsClipPath1121)"><rect width="1000" height="1000" fill="#2f3542"></rect><g transform="matrix(3.4334763948497855,0,0,3.4334763948497855,100,100)"><svg xmlns="http://www.w3.org/2000/svg" version="1.1" xmlns:xlink="http://www.w3.org/1999/xlink" width="233" height="233"><svg width="233" height="233" viewBox="0 0 233 233" fill="none" xmlns="http://www.w3.org/2000/svg">
<rect x="232.878" y="232.878" width="232.878" height="232.878" rx="16" transform="rotate(180 232.878 232.878)" fill="#2F3542"></rect>
<path d="M200.102 25.8753L166.903 25.8753L166.903 125.974C166.903 128.531 164.868 130.601 162.369 130.601L155.252 130.601L155.252 201.827C155.252 205.703 158.338 208.851 162.143 208.851L200.102 208.851C203.912 208.851 207.003 205.703 207.003 201.827L207.002 32.9048C207.002 29.0217 203.912 25.8753 200.102 25.8753Z" fill="#FDF8C1"></path>
<path d="M129.822 130.601C127.326 130.601 125.294 128.531 125.294 125.974L125.294 25.8753L102.219 25.8753L102.219 125.974C102.219 128.531 100.186 130.601 97.6752 130.601L90.5637 130.601L90.5637 201.827C90.5637 205.703 93.6517 208.851 97.4654 208.851L135.41 208.851C139.227 208.851 142.314 205.703 142.314 201.827L142.314 130.601L129.822 130.601Z" fill="#B7F5CC"></path>
<path d="M65.142 130.601C62.6334 130.601 60.5999 128.531 60.5999 125.974L60.5999 25.8753L32.7729 25.8753C28.9612 25.8753 25.8754 29.0217 25.8754 32.9048L25.8754 201.827C25.8754 205.703 28.9612 208.851 32.7729 208.851L70.7228 208.851C74.5367 208.851 77.626 205.703 77.626 201.827L77.626 130.601L65.142 130.601Z" fill="#8BC2FF"></path>
</svg></svg></g></g><defs><clipPath id="SvgjsClipPath1121"><rect width="1000" height="1000" x="0" y="0" rx="200" ry="200"></rect></clipPath></defs></svg>